nColumns=28
nRows=88
DataType=double
version=3
OpenSimVersion=4.1
endheader
time	ground_force_1_vx	ground_force_1_vy	ground_force_1_vz	ground_force_1_px	ground_force_1_py	ground_force_1_pz	ground_force_1_mx	ground_force_1_my	ground_force_1_mz	ground_force_2_vx	ground_force_2_vy	ground_force_2_vz	ground_force_2_px	ground_force_2_py	ground_force_2_pz	ground_force_2_mx	ground_force_2_my	ground_force_2_mz	ground_force_3_vx	ground_force_3_vy	ground_force_3_vz	ground_force_3_px	ground_force_3_py	ground_force_3_pz	ground_force_3_mx	ground_force_3_my	ground_force_3_mz
1.42	-249.152	353.497	-44.7216	-0.120697	0.006	-0.387606	0	2.16816	0	-164.624	276.375	27.0571	-0.088844	0.006	-0.752664	0	-3.1204	0	0	0	0	0	0	0	0	0	0
1.43	-416.903	677.27	-93.9121	-0.128238	0.006	-0.3888	0	3.15092	0	-337.679	587.628	64.4432	-0.094754	0.006	-0.759345	0	-3.52036	0	0	0	0	0	0	0	0	0	0
1.44	-200.922	541.961	-68.0363	-0.139026	0.006	-0.392271	0	2.0852	0	-221.919	581.769	60.629	-0.110671	0.006	-0.753131	0	-2.76144	0	0	0	0	0	0	0	0	0	0
1.45	-119.803	538.207	-42.3735	-0.170971	0.006	-0.402244	0	-1.3011	0	-122.015	757.716	22.6686	-0.165658	0.006	-0.741171	0	2.4474	0	0	0	0	0	0	0	0	0	0
1.46	-72.5175	801.312	-16.1205	-0.222214	0.006	-0.41656	0	-3.31155	0	-15.47	1101.19	-10.8046	-0.206411	0.006	-0.735258	0	5.85998	0	0	0	0	0	0	0	0	0	0
1.47	-52.5358	962.951	-43.794	-0.241592	0.006	-0.420101	0	-3.27282	0	-75.2892	933.781	19.9537	-0.202489	0.006	-0.73591	0	6.36919	0	0	0	0	0	0	0	0	0	0
1.48	-162.796	792.574	-72.9325	-0.224705	0.006	-0.416794	0	-1.66348	0	-221.345	609.405	49.4704	-0.166438	0.006	-0.738602	0	3.55561	0	0	0	0	0	0	0	0	0	0
1.49	-212.168	617.443	-67.0369	-0.198449	0.006	-0.413157	0	-1.21541	0	-254.109	476.774	54.0174	-0.137109	0.006	-0.74028	0	2.15332	0	0	0	0	0	0	0	0	0	0
1.5	-164.913	529.526	-58.3006	-0.185571	0.006	-0.410729	0	-2.06024	0	-208.894	432.788	47.4777	-0.128228	0.006	-0.739307	0	2.83982	0	0	0	0	0	0	0	0	0	0
1.51	-139.314	510.174	-52.3943	-0.180899	0.006	-0.410198	0	-3.01255	0	-179.038	424.198	46.0771	-0.124788	0.006	-0.738856	0	3.76105	0	0	0	0	0	0	0	0	0	0
1.52	-147.269	493.31	-51.0715	-0.174856	0.006	-0.409752	0	-3.53612	0	-188	448.716	48.5978	-0.123583	0.006	-0.73867	0	4.50384	0	0	0	0	0	0	0	0	0	0
1.53	-158.153	472.704	-50.8294	-0.16929	0.006	-0.409354	0	-3.88023	0	-193.474	488.079	45.4996	-0.126546	0.006	-0.73745	0	5.53123	0	0	0	0	0	0	0	0	0	0
1.54	-146.83	467.698	-48.7953	-0.170385	0.006	-0.410004	0	-4.67863	0	-167.406	520.903	42.0268	-0.1331	0.006	-0.736032	0	6.38307	0	0	0	0	0	0	0	0	0	0
1.55	-114.836	484.76	-44.4118	-0.179725	0.006	-0.412278	0	-5.76385	0	-127.712	546.022	44.0594	-0.141381	0.006	-0.735586	0	6.65575	0	0	0	0	0	0	0	0	0	0
1.56	-81.14	501.603	-41.5564	-0.19091	0.006	-0.414804	0	-6.40428	0	-98.8487	553.329	48.4603	-0.147657	0.006	-0.735785	0	6.24436	0	0	0	0	0	0	0	0	0	0
1.57	-61.1635	491.242	-44.0767	-0.197643	0.006	-0.416008	0	-6.21322	0	-93.2069	534.194	52.0953	-0.149331	0.006	-0.736117	0	5.39878	0	0	0	0	0	0	0	0	0	0
1.58	-54.7341	462.347	-45.1497	-0.200171	0.006	-0.416887	0	-5.82838	0	-101.952	502.259	51.8631	-0.147563	0.006	-0.736146	0	4.81072	0	0	0	0	0	0	0	0	0	0
1.59	-51.9785	433.062	-41.1262	-0.201294	0.006	-0.418574	0	-5.81971	0	-108.321	478.58	46.7626	-0.146433	0.006	-0.735441	0	4.82667	0	0	0	0	0	0	0	0	0	0
1.6	-50.1669	406.242	-35.8634	-0.201638	0.006	-0.420895	0	-6.12757	0	-105.334	468.995	40.3575	-0.147989	0.006	-0.734376	0	4.93609	0	0	0	0	0	0	0	0	0	0
1.61	-50.0496	384.328	-30.0775	-0.201553	0.006	-0.424011	0	-6.75781	0	-95.9006	470.07	36.6842	-0.151245	0.006	-0.733526	0	4.73475	0	0	0	0	0	0	0	0	0	0
1.62	-50.7059	369.207	-24.0101	-0.20209	0.006	-0.427559	0	-7.48265	0	-84.2639	481.341	35.2623	-0.155658	0.006	-0.73318	0	4.34695	0	0	0	0	0	0	0	0	0	0
1.63	-49.796	360.866	-19.5096	-0.203906	0.006	-0.430814	0	-8.05516	0	-68.8366	504.788	34.4943	-0.161931	0.006	-0.732974	0	3.93566	0	0	0	0	0	0	0	0	0	0
1.64	-45.4907	358.25	-16.9581	-0.207157	0.006	-0.4335	0	-8.4205	0	-50.6321	530.41	37.6138	-0.16836	0.006	-0.733115	0	3.2233	0	0	0	0	0	0	0	0	0	0
1.65	-38.2381	362.629	-15.4948	-0.211538	0.006	-0.435487	0	-8.60069	0	-33.9065	548.443	44.4544	-0.172933	0.006	-0.734107	0	2.28266	0	0	0	0	0	0	0	0	0	0
1.66	-29.6436	374.611	-15.1433	-0.21603	0.006	-0.43688	0	-8.49429	0	-20.7374	561.45	49.6811	-0.175212	0.006	-0.735406	0	1.54797	0	0	0	0	0	0	0	0	0	0
1.67	-21.0083	389.293	-16.3111	-0.219412	0.006	-0.437401	0	-8.11606	0	-18.3255	563.893	51.7276	-0.174494	0.006	-0.736639	0	1.08354	0	0	0	0	0	0	0	0	0	0
1.68	-14.8815	403.988	-18.6749	-0.220366	0.006	-0.436291	0	-7.50674	0	-22.9829	557.79	50.3057	-0.172281	0.006	-0.737349	0	0.899464	0	0	0	0	0	0	0	0	0	0
1.69	-13.9658	414.714	-23.6316	-0.218169	0.006	-0.433787	0	-6.65808	0	-24.1794	557.739	48.9023	-0.170659	0.006	-0.737913	0	0.850445	0	0	0	0	0	0	0	0	0	0
1.7	-14.6071	424.543	-30.4359	-0.213351	0.006	-0.430636	0	-5.77882	0	-19.7553	566.914	51.0676	-0.169678	0.006	-0.738857	0	0.716699	0	0	0	0	0	0	0	0	0	0
1.71	-14.6334	438.716	-37.2544	-0.207326	0.006	-0.42757	0	-5.07323	0	-13.8861	580.222	55.9356	-0.168055	0.006	-0.740056	0	0.50916	0	0	0	0	0	0	0	0	0	0
1.72	-14.6385	456.088	-42.7019	-0.201367	0.006	-0.424827	0	-4.54937	0	-11.2543	590.684	61.6064	-0.165007	0.006	-0.741229	0	0.412255	0	0	0	0	0	0	0	0	0	0
1.73	-14.3501	473.994	-48.7485	-0.196004	0.006	-0.422273	0	-4.00066	0	-12.3956	593.861	66.4743	-0.161105	0.006	-0.742206	0	0.63701	0	0	0	0	0	0	0	0	0	0
1.74	-12.654	489.468	-56.7979	-0.19139	0.006	-0.419773	0	-3.2784	0	-15.1059	591.473	69.2773	-0.157561	0.006	-0.742772	0	1.1264	0	0	0	0	0	0	0	0	0	0
1.75	-8.86572	500.9	-64.7953	-0.18801	0.006	-0.417808	0	-2.47588	0	-15.3021	587.608	70.8353	-0.155168	0.006	-0.743221	0	1.76589	0	0	0	0	0	0	0	0	0	0
1.76	-3.31755	510.115	-71.1311	-0.186093	0.006	-0.416428	0	-1.74501	0	-12.164	584.093	72.88	-0.153665	0.006	-0.74358	0	2.32264	0	0	0	0	0	0	0	0	0	0
1.77	2.33799	517.23	-76.7999	-0.184923	0.006	-0.415289	0	-1.0378	0	-7.77613	580.383	75.4339	-0.15254	0.006	-0.743766	0	2.72922	0	0	0	0	0	0	0	0	0	0
1.78	7.03397	520.582	-81.8883	-0.183887	0.006	-0.414378	0	-0.347569	0	-2.90621	577.4	77.4678	-0.152051	0.006	-0.743749	0	3.06333	0	0	0	0	0	0	0	0	0	0
1.79	11.2751	521.519	-85.9994	-0.182743	0.006	-0.413452	0	0.351779	0	2.6781	575.524	79.0356	-0.151667	0.006	-0.74357	0	3.30944	0	0	0	0	0	0	0	0	0	0
1.8	14.8121	520.484	-90.2564	-0.180904	0.006	-0.412266	0	1.04867	0	6.87805	572.616	80.0717	-0.150608	0.006	-0.743307	0	3.51165	0	0	0	0	0	0	0	0	0	0
1.81	16.2576	516.608	-93.9574	-0.178092	0.006	-0.411019	0	1.63271	0	8.25843	567.023	79.7712	-0.148662	0.006	-0.742897	0	3.66336	0	0	0	0	0	0	0	0	0	0
1.82	15.4931	512.059	-96.5933	-0.174439	0.006	-0.409581	0	2.03927	0	7.44289	561.275	78.7506	-0.145565	0.006	-0.742782	0	3.62051	0	0	0	0	0	0	0	0	0	0
1.83	13.5039	508.039	-98.2983	-0.170131	0.006	-0.408291	0	2.24265	0	3.79295	553.862	80.1017	-0.140854	0.006	-0.743305	0	3.09204	0	0	0	0	0	0	0	0	0	0
1.84	10.5785	502.5	-98.8162	-0.165307	0.006	-0.407269	0	2.31156	0	-2.32019	542.616	83.2231	-0.134739	0.006	-0.744166	0	2.16361	0	0	0	0	0	0	0	0	0	0
1.85	6.68794	493.665	-98.6492	-0.159919	0.006	-0.406362	0	2.27702	0	-9.80494	530.03	85.4995	-0.127944	0.006	-0.744995	0	1.18483	0	0	0	0	0	0	0	0	0	0
1.86	2.70191	483.685	-98.5576	-0.154468	0.006	-0.40557	0	2.09777	0	-17.5457	517.484	86.3865	-0.12092	0.006	-0.745572	0	0.311031	0	0	0	0	0	0	0	0	0	0
1.87	0.417568	474.479	-99.1406	-0.149895	0.006	-0.405057	0	1.9475	0	-24.9904	506.232	85.7509	-0.114381	0.006	-0.745629	0	-0.3568	0	0	0	0	0	0	0	0	0	0
1.88	0.330494	466.61	-100.594	-0.146668	0.006	-0.404638	0	1.8943	0	-29.5189	498.905	84.6125	-0.10983	0.006	-0.745495	0	-0.807365	0	0	0	0	0	0	0	0	0	0
1.89	0.883883	458.804	-101.709	-0.144279	0.006	-0.404664	0	1.79286	0	-30.7728	493.977	84.0433	-0.107094	0.006	-0.745394	0	-1.11717	0	0	0	0	0	0	0	0	0	0
1.9	0.95073	449.881	-101.603	-0.142149	0.006	-0.405157	0	1.49629	0	-31.7663	488.092	83.6829	-0.104723	0.006	-0.745215	0	-1.42719	0	0	0	0	0	0	0	0	0	0
1.91	0.169173	441.086	-100.089	-0.140204	0.006	-0.405744	0	1.00536	0	-33.0241	481.062	83.2618	-0.102397	0.006	-0.745152	0	-1.70267	0	0	0	0	0	0	0	0	0	0
1.92	-1.66945	434.029	-96.8688	-0.138367	0.006	-0.406448	0	0.432244	0	-34.1306	473.818	83.1073	-0.100505	0.006	-0.745379	0	-1.93462	0	0	0	0	0	0	0	0	0	0
1.93	-3.89094	429.781	-93.3218	-0.136844	0.006	-0.406805	0	-0.042693	0	-34.851	467.395	83.5887	-0.098977	0.006	-0.745891	0	-2.13033	0	0	0	0	0	0	0	0	0	0
1.94	-5.46018	428.019	-91.2154	-0.135472	0.006	-0.406904	0	-0.303553	0	-35.4877	463.266	84.8697	-0.097533	0.006	-0.746409	0	-2.26137	0	0	0	0	0	0	0	0	0	0
1.95	-7.05361	428.303	-90.6968	-0.134068	0.006	-0.406765	0	-0.339842	0	-36.8426	462.281	86.5439	-0.09621	0.006	-0.746816	0	-2.35345	0	0	0	0	0	0	0	0	0	0
1.96	-9.4287	429.476	-90.7504	-0.132637	0.006	-0.406562	0	-0.252236	0	-38.6863	463.492	87.4048	-0.094863	0.006	-0.747318	0	-2.351	0	0	0	0	0	0	0	0	0	0
1.97	-12.8074	430.722	-90.7228	-0.131187	0.006	-0.406453	0	-0.125241	0	-40.2653	466.442	87.389	-0.093499	0.006	-0.747861	0	-2.19971	0	0	0	0	0	0	0	0	0	0
1.98	-16.9121	431.403	-89.7753	-0.129809	0.006	-0.406574	0	-0.094066	0	-41.4981	470.962	86.9654	-0.092195	0.006	-0.748435	0	-2.00211	0	0	0	0	0	0	0	0	0	0
1.99	-21.1429	432.787	-88.1538	-0.128513	0.006	-0.406817	0	-0.219083	0	-42.408	476.413	86.3879	-0.091131	0.006	-0.74907	0	-1.80493	0	0	0	0	0	0	0	0	0	0
2	-25.5068	435.323	-86.7484	-0.127373	0.006	-0.406975	0	-0.419541	0	-42.6311	481.964	85.7906	-0.0903	0.006	-0.749641	0	-1.62712	0	0	0	0	0	0	0	0	0	0
2.01	-29.9085	438.679	-86.1743	-0.126195	0.006	-0.407187	0	-0.632438	0	-41.6833	488.334	85.2264	-0.089595	0.006	-0.75019	0	-1.56179	0	0	0	0	0	0	0	0	0	0
2.02	-33.9896	443.757	-86.2155	-0.125062	0.006	-0.407193	0	-0.814206	0	-39.8485	495.829	84.4927	-0.088934	0.006	-0.750647	0	-1.47794	0	0	0	0	0	0	0	0	0	0
2.03	-36.8171	451.693	-86.9006	-0.124225	0.006	-0.406851	0	-0.945498	0	-38.8016	503.42	83.435	-0.088095	0.006	-0.751039	0	-1.34091	0	0	0	0	0	0	0	0	0	0
2.04	-38.355	461.261	-88.0642	-0.123551	0.006	-0.4063	0	-1.01404	0	-39.4699	508.809	81.6573	-0.087111	0.006	-0.751121	0	-1.28809	0	0	0	0	0	0	0	0	0	0
2.05	-40.6331	469.221	-89.4412	-0.122699	0.006	-0.405551	0	-0.969607	0	-41.515	511.115	78.548	-0.085927	0.006	-0.751042	0	-1.16964	0	0	0	0	0	0	0	0	0	0
2.06	-44.418	472.586	-89.9399	-0.121564	0.006	-0.40461	0	-0.800879	0	-44.7057	510.439	73.6069	-0.084807	0.006	-0.75071	0	-0.951199	0	0	0	0	0	0	0	0	0	0
2.07	-48.7625	468.936	-87.8031	-0.120078	0.006	-0.40388	0	-0.590487	0	-48.9099	506.847	66.9041	-0.083555	0.006	-0.750056	0	-0.680355	0	0	0	0	0	0	0	0	0	0
2.08	-53.8181	456.926	-82.0673	-0.118242	0.006	-0.403393	0	-0.389799	0	-53.7982	499.803	59.2875	-0.082129	0.006	-0.749392	0	-0.412765	0	0	0	0	0	0	0	0	0	0
2.09	-59.7372	434.789	-72.6007	-0.115915	0.006	-0.402934	0	-0.224878	0	-59.2269	488.497	51.9045	-0.080767	0.006	-0.748907	0	-0.258579	0	0	0	0	0	0	0	0	0	0
2.1	-64.8493	401.516	-59.8871	-0.11288	0.006	-0.402579	0	-0.089521	0	-64.3806	471.547	45.2494	-0.079277	0.006	-0.748771	0	-0.206174	0	0	0	0	0	0	0	0	0	0
2.11	-65.4902	359.218	-45.1069	-0.109392	0.006	-0.402212	0	-0.037198	0	-67.4891	444.088	38.4624	-0.077479	0.006	-0.748875	0	-0.237429	0	0	0	0	0	0	0	0	0	0
2.12	-57.125	302.527	-28.0594	-0.105153	0.006	-0.40192	0	-0.076113	0	-64.9218	398.696	30.324	-0.074942	0.006	-0.74885	0	-0.34924	0	0	0	0	0	0	0	0	0	0
2.13	-38.2112	220.816	-8.27763	-0.098533	0.006	-0.402986	0	-0.199177	0	-52.3436	329.165	19.0196	-0.07121	0.006	-0.74823	0	-0.355875	0	0	0	0	0	0	0	0	0	0
2.14	-13.5984	116.688	9.20689	-0.083888	0.006	-0.410172	0	-0.350904	0	-30.5665	235.066	4.60899	-0.065772	0.006	-0.744823	0	-0.139552	0	0	0	0	0	0	0	0	0	0
2.15	1.13891	20.9945	13.3262	0.021441	0.006	-0.491821	0	-1.85995	0	-8.68834	122.383	-7.92028	-0.054787	0.006	-0.7294	0	0.219347	0	0	0	0	0	0	0	0	0	0
2.16	0	0	0	0	0	0	0	0	0	0.292277	23.8137	-8.17874	0.019491	0.006	-0.589621	0	0.861201	0	0	0	0	0	0	0	0	0	0
2.17	0	0	0	0	0	0	0	0	0	0	0	0	0	0	0	0	0	0	0	0	0	0	0	0	0	0	0
2.18	0	0	0	0	0	0	0	0	0	0	0	0	0	0	0	0	0	0	0	0	0	0	0	0	0	0	0
2.19	0	0	0	0	0	0	0	0	0	0	0	0	0	0	0	0	0	0	0	0	0	0	0	0	0	0	0
2.2	0	0	0	0	0	0	0	0	0	0	0	0	0	0	0	0	0	0	0	0	0	0	0	0	0	0	0
2.21	0	0	0	0	0	0	0	0	0	0	0	0	0	0	0	0	0	0	0	0	0	0	0	0	0	0	0
2.22	0	0	0	0	0	0	0	0	0	0	0	0	0	0	0	0	0	0	0	0	0	0	0	0	0	0	0
2.23	0	0	0	0	0	0	0	0	0	0	0	0	0	0	0	0	0	0	0	0	0	0	0	0	0	0	0
2.24	0	0	0	0	0	0	0	0	0	0	0	0	0	0	0	0	0	0	0	0	0	0	0	0	0	0	0
2.25	0	0	0	0	0	0	0	0	0	0	0	0	0	0	0	0	0	0	0	0	0	0	0	0	0	0	0
2.26	0	0	0	0	0	0	0	0	0	0	0	0	0	0	0	0	0	0	0	0	0	0	0	0	0	0	0
2.27	0	0	0	0	0	0	0	0	0	0	0	0	0	0	0	0	0	0	0	0	0	0	0	0	0	0	0
2.28	0	0	0	0	0	0	0	0	0	0	0	0	0	0	0	0	0	0	0	0	0	0	0	0	0	0	0
2.29	0	0	0	0	0	0	0	0	0	0	0	0	0	0	0	0	0	0	0	0	0	0	0	0	0	0	0
